<?xml version="1.0" encoding="UTF-8"?>
<svg id="Layer_1" xmlns="http://www.w3.org/2000/svg" version="1.1" viewBox="0 0 659 160.4">
  <!-- Generator: Adobe Illustrator 29.0.0, SVG Export Plug-In . SVG Version: 2.1.0 Build 186)  -->
  <path d="M276,2.5l-35.6,155.8h-60.7l-18-88.4-18,88.4h-60.7L47.2,2.5h52.6l14.1,98.1L135,2.5h53.2l21.1,98.1L223.5,2.5h52.6Z"/>
  <path d="M393.5,134.7h-51.9l-7.7,23.5h-51.3L339.6,2.5h56.3l56.8,155.8h-51.5l-7.7-23.5ZM381.6,98l-14.1-43.3-14.1,43.3h28.2Z"/>
  <path d="M468.6,39c6.2-12,15.1-21.4,26.7-28,11.6-6.7,25.2-10,40.9-10s25.6,2.5,36.2,7.6c10.6,5.1,19.3,12.2,26,21.5,6.7,9.2,11.1,20,13.3,32.3h-51.5c-2.3-5.1-5.7-9.1-10-12-4.3-2.9-9.3-4.3-14.9-4.3-8.2,0-14.7,3.1-19.5,9.2-4.8,6.2-7.2,14.4-7.2,24.9s2.4,18.7,7.2,24.9c4.8,6.2,11.3,9.2,19.5,9.2s10.5-1.4,14.9-4.3c4.3-2.9,7.7-6.9,10-12h51.5c-2.2,12.3-6.6,23.1-13.3,32.3-6.7,9.2-15.3,16.4-26,21.5-10.6,5.1-22.7,7.6-36.2,7.6s-29.3-3.3-40.9-10c-11.6-6.7-20.5-16-26.7-28-6.2-12-9.4-25.7-9.4-41.1s3.1-29.1,9.4-41.1Z"/>
</svg>